<?xml version="1.0" ?><svg xmlns="http://www.w3.org/2000/svg" xmlns:xlink="http://www.w3.org/1999/xlink" version="1.1" id="design" viewBox="0 0 100 100" style="enable-background:new 0 0 100 100;" xml:space="preserve"><style type="text/css">
	.st0{fill:#222222;}
	.st1{fill:#48EDE5;}
</style><g><path class="st0" d="M13.2,81.6c0-0.5,0.2-0.9,0.6-1.1c0.5-0.3,1-0.4,1.6-0.3c3.2,0,6.4,0,9.6,0h0.8c-0.4-1.9-0.1-3.8-0.2-5.7   c-0.5-0.1-0.9-0.1-1.4-0.1c-2.4,0-4.3-1.9-4.3-4.3c0-0.8,0-1.6,0-2.4c0-2.8,1.5-4.5,4.3-4.7c0.2,0,0.4,0,0.6,0h50.6   c0.2,0,0.4,0,0.6,0c2.9,0.3,4.4,2.1,4.3,5.1c0,0.7,0,1.3,0,2c0.1,2.4-1.9,4.4-4.3,4.4c0,0,0,0,0,0h-1.4c-0.1,1.9,0.1,3.8-0.2,5.7   h10.6c1.1,0,1.6,0.3,1.8,1c0.1,0.5,0.1,0.8-0.2,1.2c-0.3,0.4-0.9,0.7-1.5,0.7l-70.5,0c-0.2,0-0.3,0-0.5-0.1   c-0.4-0.2-0.7-0.5-0.9-0.9C13.2,82,13.2,81.8,13.2,81.6L13.2,81.6z M50,71.6h9.9c5.1,0,10.2,0,15.3,0c1.7,0,2.1-0.4,2.1-2.1v-1.7   c0-1.6-0.4-2-2-2h-51c-0.8-0.1-1.5,0.5-1.6,1.3c0,0.1,0,0.2,0,0.3c0,0.7,0,1.5,0,2.2c0,1.5,0.4,2,2,2C33.1,71.6,41.5,71.6,50,71.6z    M36.9,80.1h26.2c-0.4-1.9-0.1-3.8-0.2-5.7H37.1C37,76.4,37.2,78.2,36.9,80.1z M28.5,74.4c0,1.5,0,2.9,0,4.4c0,0.8,0.6,1.4,1.4,1.4   c0,0,0,0,0,0c1,0,2,0,2.9,0c0.7,0,1.3-0.5,1.4-1.2c0.1-1.5,0-3,0-4.5L28.5,74.4z M65.8,74.4V75c0,1.2,0,2.5,0,3.7   c0,0.8,0.6,1.4,1.3,1.5c0,0,0.1,0,0.1,0c1,0,2,0,2.9,0c0.7,0,1.3-0.5,1.4-1.3c0.1-1.5,0-3,0-4.5L65.8,74.4z"/><path class="st1" d="M75.9,62.9c-0.2,0-0.4,0-0.6,0H24.7c-0.2,0-0.4,0-0.6,0c0-7.2,0-14.4,0-21.5c0-0.9,0-1.9,0-2.8V24.1   c0-1.4,0-2.9,0.7-4.2c1-1.8,2.9-3,4.9-3c1.5-0.1,2.9,0,4.4,0h35.9c3.2,0,5.8,2.6,5.8,5.8c0,0,0,0,0,0c0,0.5,0,1,0,1.4   C75.9,24.2,75.9,62.9,75.9,62.9z M50,47.2c5.7,0,11.4,0,17,0c2.4,0.1,4.4-1.7,4.5-4c0-0.2,0-0.3,0-0.5c0-4.6,0-9.3,0-13.9   c0.1-2.4-1.7-4.4-4.1-4.5c-0.2,0-0.3,0-0.5,0c-11.3,0-22.7,0-34,0c-2.4-0.2-4.4,1.7-4.6,4c0,0.2,0,0.4,0,0.6v13.6   c0,3,1.7,4.8,4.7,4.8C38.8,47.2,44.4,47.2,50,47.2z"/><path class="st0" d="M24.1,38.5c0,0.9,0,1.9,0,2.8c-1,0-2,0-3,0c-2.3,0-4.1-1.9-4.2-4.2c0-2.9,0-5.9,0-8.8c0-2.3,1.9-4.2,4.2-4.2   c1,0,2,0,2.9,0V27h-2.7c-0.8-0.1-1.5,0.5-1.6,1.3c0,0.1,0,0.2,0,0.2c0,2.8,0,5.6,0,8.4c-0.1,0.8,0.5,1.5,1.3,1.6c0.1,0,0.2,0,0.3,0   C22.3,38.5,23.2,38.5,24.1,38.5z"/><path class="st0" d="M75.9,41.4c0-0.9,0-1.9,0-2.8c0.9,0,1.8,0,2.7,0c0.8,0.1,1.5-0.5,1.5-1.3c0-0.1,0-0.2,0-0.3c0-2.8,0-5.6,0-8.4   c0.1-0.8-0.6-1.5-1.4-1.6c-0.1,0-0.1,0-0.2,0h-2.7v-2.9c1,0,1.9,0,2.9,0c2.4,0,4.3,1.9,4.4,4.2c0,0,0,0,0,0.1c0,2.9,0,5.8,0,8.7   c0,2.4-1.9,4.3-4.2,4.3c0,0,0,0,0,0C77.9,41.4,76.9,41.4,75.9,41.4z"/><path class="st0" d="M50,47.2c-5.6,0-11.2,0-16.8,0c-3,0-4.7-1.7-4.7-4.8V28.7c-0.2-2.4,1.6-4.4,4-4.6c0.2,0,0.4,0,0.6,0   c11.3,0,22.7,0,34,0c2.4-0.1,4.4,1.7,4.6,4c0,0.2,0,0.3,0,0.5c0,4.7,0,9.3,0,13.9c0.1,2.4-1.7,4.4-4,4.5c-0.2,0-0.3,0-0.5,0   C61.4,47.2,55.7,47.2,50,47.2z M57.8,44.1v0.1h9.1c1.4,0,1.9-0.5,1.9-1.8c0-4.5,0-9,0-13.5c0-1.5-0.4-1.9-1.9-1.9H33.3   c-0.2,0-0.4,0-0.6,0c-0.8,0-1.4,0.6-1.4,1.4c0,4.8,0,9.6,0,14.4c0,0.6,0.3,1.1,0.8,1.3c0.9,0.4,1.9,0.3,2.8-0.1   c1.2-0.7,2.5-1.4,3.7-2.1c2.5-1.4,5-2.9,7.5-4.3c0.6-0.5,1.6-0.4,2.1,0.3c0.5,0.7,0.3,1.6-0.3,2.1c-0.1,0.1-0.2,0.1-0.3,0.2   c-2.1,1.3-4.3,2.5-6.5,3.7l-0.7,0.4h0.4c3.5,0,7,0,10.6,0c0.3,0,0.6-0.1,0.9-0.3c3.7-2.1,7.4-4.3,11-6.4c0.6-0.5,1.6-0.4,2.1,0.3   c0,0,0.1,0.1,0.1,0.1c0.5,0.7,0.2,1.6-0.7,2.1c-1.2,0.7-2.4,1.4-3.7,2.1L57.8,44.1z"/><path class="st0" d="M62.5,55.1c0.1-2.5,2.2-4.5,4.7-4.4c2.4,0.1,4.3,2,4.4,4.3c0.1,2.5-1.8,4.6-4.3,4.8c-2.5,0.1-4.6-1.8-4.8-4.3   C62.5,55.3,62.5,55.2,62.5,55.1z M65.4,55c0,0.9,0.7,1.7,1.6,1.7c0,0,0,0,0,0c0.9,0,1.6-0.8,1.7-1.6c0-0.9-0.7-1.7-1.6-1.7   c0,0,0,0,0,0C66.1,53.4,65.4,54.1,65.4,55C65.4,55,65.4,55,65.4,55z"/><path class="st0" d="M37.5,55.1c0,2.5-2,4.5-4.5,4.5s-4.5-2-4.5-4.5c0-2.5,2-4.5,4.5-4.5C35.5,50.5,37.5,52.5,37.5,55.1   C37.5,55.1,37.5,55.1,37.5,55.1z M33,53.4c-0.9,0-1.6,0.7-1.6,1.6c0,0.9,0.8,1.7,1.7,1.7c0.9,0,1.6-0.8,1.6-1.7c0,0,0,0,0,0   C34.6,54.1,33.9,53.4,33,53.4C33,53.4,33,53.4,33,53.4z"/><path class="st0" d="M50.1,50.5c2.5,0,5,0,7.5,0c0.8-0.1,1.5,0.4,1.6,1.2c0,0,0,0.1,0,0.1c0.1,0.7-0.4,1.3-1.1,1.5   c-0.2,0-0.4,0.1-0.6,0.1H42.6c-1,0-1.6-0.4-1.8-1.1c-0.2-0.8,0.4-1.6,1.2-1.7c0.1,0,0.3,0,0.4,0c2.2,0,4.4,0,6.5,0L50.1,50.5z"/><path class="st0" d="M50.1,56.7h7.5c1.1,0,1.7,0.5,1.7,1.4c0,0.9-0.6,1.5-1.7,1.5h-15c-0.7,0.1-1.3-0.3-1.6-0.9   c-0.2-0.5-0.1-1.1,0.2-1.5c0.3-0.4,0.8-0.5,1.3-0.5L50.1,56.7z"/></g></svg>