<?xml version="1.0" ?><svg xmlns="http://www.w3.org/2000/svg" xmlns:xlink="http://www.w3.org/1999/xlink" version="1.1" id="Layer_1" viewBox="0 0 100 100" style="enable-background:new 0 0 100 100;" xml:space="preserve"><style type="text/css">
	.st0{fill:#48EDE5;}
	.st1{fill:#333333;}
</style><g><path class="st0" d="M79.1,49H57.4c-1.6,0-2.9-1.3-2.9-2.9V20.9c0-1.6,1.3-2.9,2.9-2.9h21.6c1.6-0.1,2.9,1.1,2.9,2.7V46   C82,47.6,80.7,49,79.1,49z"/><g><path class="st1" d="M62,27.2h6.3c0.6,0,1.1-0.5,1.1-1.1c0-0.6-0.5-1.1-1.1-1.1H62c-0.6,0-1.1,0.5-1.1,1.1    C60.9,26.7,61.4,27.2,62,27.2z"/><path class="st1" d="M75.3,30H62c-0.6,0-1.1,0.5-1.1,1.1c0,0.6,0.5,1.1,1.1,1.1h13.3c0.6,0,1.1-0.5,1.1-1.1    C76.5,30.5,75.9,30,75.3,30z"/><path class="st1" d="M71.8,34.9H62c-0.6,0-1.1,0.5-1.1,1.1c0,0.6,0.5,1.1,1.1,1.1h9.7c0.6,0,1.1-0.5,1.1-1.1    C72.9,35.4,72.4,34.9,71.8,34.9z"/><path class="st1" d="M34.1,59.4c0.2,0.2,0.5,0.3,0.8,0.3c0,0,0.1,0,0.1,0c0.3,0,0.6-0.2,0.8-0.5l5.8-8c0.4-0.5,0.3-1.2-0.3-1.6    c-0.5-0.4-1.2-0.3-1.6,0.3l-5.1,6.9l-2.5-2.5c-0.4-0.4-1.2-0.4-1.6,0s-0.4,1.2,0,1.6L34.1,59.4z"/><path class="st1" d="M48.9,74.9c0.5-0.5,0.7-1.2,0.4-2L46.1,65c0.8-0.3,1.5-0.8,2.1-1.5c1.1-1.4,1.1-3.2,0.2-4.7    c-0.5-0.9-0.2-2,0.7-2.6c1.5-1,2.2-2.7,1.8-4.4c-0.4-1.8-1.8-3-3.7-3.3c-1.1-0.1-1.8-1-1.8-2.1c0.1-1.8-0.8-3.3-2.4-4.1    c-1.7-0.8-3.6-0.6-5,0.7c0,0,0,0,0,0c-0.8,0.7-2.1,0.8-2.9,0.1c-1.4-1.2-3.4-1.5-5-0.7c-1.6,0.8-2.5,2.4-2.4,4.1    c0.1,1.1-0.7,2-1.7,2.1c-1.9,0.2-3.3,1.4-3.7,3.2c-0.4,1.7,0.3,3.5,1.8,4.5c0.9,0.6,1.2,1.6,0.7,2.5c-0.9,1.5-0.8,3.3,0.3,4.7    c0.8,1,1.9,1.6,3.1,1.7L25.4,73c-0.3,0.8-0.1,1.5,0.4,2c0.3,0.3,0.8,0.8,1.6,0.8c0.2,0,0.5,0,0.9-0.3l2.5-1l1.2,2.4    c0.3,0.8,1.1,1.3,2,1.3c0.9,0,1.7-0.5,2-1.3l1.3-3.4l1.3,3.2c0.3,0.8,1.1,1.4,2,1.4c0.9,0,1.7-0.5,2-1.3l1.1-2.4l2.5,1    c0.4,0.3,0.8,0.3,0.9,0.3C48.1,75.7,48.6,75.2,48.9,74.9z M26.8,62.1c-0.2-0.3-0.7-1.1-0.1-2.2c1.1-1.9,0.5-4.3-1.4-5.5    c-0.9-0.6-1-1.4-0.8-2.1c0.2-0.8,0.8-1.3,1.7-1.4c2.3-0.3,3.9-2.3,3.7-4.5c-0.1-0.8,0.4-1.5,1.1-1.9c0.7-0.3,1.7-0.4,2.5,0.4    c1.7,1.4,4.3,1.4,6-0.1c0.8-0.7,1.8-0.6,2.5-0.3c0.8,0.4,1.2,1.1,1.1,1.9c-0.2,2.2,1.5,4.2,3.7,4.5c0.9,0.1,1.6,0.7,1.8,1.5    c0.2,0.8-0.1,1.5-0.9,2c-1.9,1.3-2.5,3.7-1.4,5.7c0.4,0.7,0.4,1.4-0.1,2.1c-0.4,0.6-1.3,1.1-2.4,0.8c-2.2-0.6-4.6,0.5-5.4,2.5    c-0.4,1-1.4,1.3-2.1,1.3c-0.9,0-1.6-0.5-1.9-1.3c-0.8-1.6-2.4-2.6-4.1-2.6c-0.4,0-0.8,0.1-1.2,0.2C28.1,63.2,27.2,62.7,26.8,62.1z     M34.1,75.7l-1.4-2.9c-0.2-0.4-0.5-0.8-1.4-0.8H31l-3.2,1.3l2.9-8.3c0.8,0.1,1.5,0.5,1.8,1.2c0.5,1.4,1.7,2.3,3.1,2.6l0.6,1.7    L34.1,75.7z M43.7,71.9h-0.3c-0.8,0-1.2,0.5-1.3,0.9l-1.3,2.8l-2.4-5.7l-0.4-1.2c1.2-0.4,2.2-1.3,2.7-2.5c0.3-0.9,1.6-1.4,2.6-1.1    c0.1,0,0.3,0.1,0.4,0.1l3.2,8L43.7,71.9z"/><path class="st1" d="M19.2,45.7c0.6,0,1.1-0.5,1.1-1.1v-4.9h4.9c0.6,0,1.1-0.5,1.1-1.1c0-0.6-0.5-1.1-1.1-1.1h-6.1    c-0.6,0-1.1,0.5-1.1,1.1v6.1C18,45.1,18.6,45.7,19.2,45.7z"/><path class="st1" d="M25.3,79.7h-4.9v-5c0-0.6-0.5-1.1-1.1-1.1c-0.6,0-1.1,0.5-1.1,1.1v6.2c0,0.6,0.5,1.1,1.1,1.1h6.1    c0.6,0,1.1-0.5,1.1-1.1C26.4,80.2,25.9,79.7,25.3,79.7z"/><path class="st1" d="M54.6,37.3h-6.2c-0.6,0-1.1,0.5-1.1,1.1c0,0.6,0.5,1.1,1.1,1.1h5v4.9c0,0.6,0.5,1.1,1.1,1.1    c0.6,0,1.1-0.5,1.1-1.1v-6.1C55.7,37.8,55.2,37.3,54.6,37.3z"/><path class="st1" d="M54.6,73.5c-0.6,0-1.1,0.5-1.1,1.1v5h-5c-0.6,0-1.1,0.5-1.1,1.1c0,0.6,0.5,1.1,1.1,1.1h6.2    c0.6,0,1.1-0.5,1.1-1.1v-6.2C55.7,74,55.2,73.5,54.6,73.5z"/></g></g></svg>