<?xml version="1.0" ?><svg xmlns="http://www.w3.org/2000/svg" xmlns:xlink="http://www.w3.org/1999/xlink" version="1.1" id="design" viewBox="0 0 100 100" style="enable-background:new 0 0 100 100;" xml:space="preserve"><style type="text/css">
	.st0{fill:#222222;}
	.st1{fill:#48EDE5;}
</style><g><g><path class="st0" d="M70.4,43.8c0.1,0,0.1,0,0.2,0c0.1,0,0.1,0,0.2,0c7.7-0.1,13.8-6.4,13.7-14.1c0-0.1,0-0.2,0-0.4    c0-3.7-1.5-7.2-4.2-9.8c-2.7-2.6-6.2-4-9.9-4c-7.8,0-14.1,6.3-14.1,14.1c0,0,0,0,0,0C56.5,37.6,62.7,43.8,70.4,43.8z M70.4,18.2    C70.4,18.2,70.5,18.2,70.4,18.2c0.1,0,0.2,0,0.2,0c3,0,5.8,1.1,7.9,3.2c2.2,2.1,3.4,4.9,3.4,7.9c0,0.1,0,0.2,0,0.3    C82,35.9,77,41,70.8,41.1c-0.1,0-0.2,0-0.3,0c-6.4,0-11.3-4.9-11.4-11.5C59,23.4,64.1,18.2,70.4,18.2z"/><path class="st0" d="M70.3,30.8c0.8,0,1.3,0.4,1.3,1.1s-0.5,1.2-1.3,1.2c-0.7,0-1.3,0-2,0c0,0-0.1,0-0.1,0c-0.6,0-1.1,0.5-1.1,1.1    c0,0,0,0,0,0.1c0,0.7,0.6,1.2,1.3,1.1c0.3,0,0.7,0,1,0.1c0,0.4,0,0.8,0,1.2c0.1,0.6,0.5,1,1.1,1c0.6,0,1.2-0.5,1.2-1.1    c0-0.3,0-0.6,0-0.9c0-0.3,0.1-0.6,0.4-0.6c1.4-0.7,2.2-2.3,1.8-3.9c-0.4-1.5-1.7-2.6-3.3-2.7c-0.1,0-0.3,0-0.4,0    c-0.6-0.1-1-0.7-0.9-1.4c0.1-0.6,0.7-1,1.4-0.9c0.7,0,1.4,0,2.1,0c0,0,0,0,0.1,0c0.6,0,1.1-0.5,1.1-1.2c0,0,0,0,0-0.1    c0-0.6-0.5-1.1-1.2-1.1c-0.4,0-0.7,0-1.1,0c0-0.5,0-0.8,0-1.2c0-0.6-0.5-1.1-1.1-1.1c0,0,0,0,0,0c-0.6-0.1-1.2,0.4-1.2,1    c0,0.3,0,0.7,0,1c0,0.3-0.1,0.5-0.4,0.6c-1.4,0.7-2.2,2.2-1.9,3.7C67.4,29.6,68.7,30.7,70.3,30.8z"/><path class="st0" d="M84.9,82.6c-0.2-0.7-0.7-1-1.8-1c-3.3,0-6.5,0-9.8,0c-0.2,0-0.5,0-0.7-0.1v-0.7c0-10.1,0-20.3,0-30.4    c0-1.3-0.5-1.7-1.7-1.7h-6.2c-1.3,0-1.8,0.5-1.8,1.8v30.4c0,0.2,0,0.5-0.1,0.7h-4H45.2V45.3c0-1.8-0.4-2.1-2.1-2.1h-5.5    c-1.5,0-1.9,0.4-1.9,1.9v35.7c0,0.3,0,0.5-0.1,0.8H17.7v-0.8c0-16.8,0-33.7,0-50.5c0-0.2,0-0.5,0-0.7c0-0.6-0.4-1.1-1-1.2    c-0.5-0.2-1.1,0.1-1.4,0.5c-0.1,0.1-0.2,0.3-0.3,0.4v54c0.1,0.6,0.6,1,1.1,1.2H84C84.9,83.8,85.1,83.3,84.9,82.6z M42.4,81.6l-4,0    V46h4V81.6z M69.9,81.6h-4.1V51.6h4.1V81.6z"/></g><g><path class="st1" d="M31.4,81.6h-9.6V32.3h9.6V81.6z"/></g><g><path class="st1" d="M58.9,81.6h-9.6V57h9.6V81.6z"/></g></g></svg>