<?xml version="1.0" ?><svg xmlns="http://www.w3.org/2000/svg" xmlns:xlink="http://www.w3.org/1999/xlink" version="1.1" id="Layer_1" viewBox="0 0 100 100" style="enable-background:new 0 0 100 100;" xml:space="preserve"><style type="text/css">
	.st0{fill:#48EDE5;}
	.st1{fill:#333333;}
</style><g><path class="st0" d="M57,51.4h18.5c2.8,0,5-2.2,5-5v-22c0-2.8-2.2-5-5-5H57c-2.8,0-5,2.2-5,5v22C52,49.2,54.3,51.4,57,51.4z"/><g><path class="st1" d="M66.3,55.5h-6.6v-5.4h3.4c0.6,0,1.1-0.5,1.1-1.1S63.7,48,63.1,48h-3.4v-2.9c0-2.6-2.1-4.7-4.7-4.7H52v-3.4    c0-0.6-0.5-1.1-1.1-1.1s-1.1,0.5-1.1,1.1v3.4h-5.4v-6.6c0-0.6-0.5-1.1-1.1-1.1s-1.1,0.5-1.1,1.1v6.6H37v-3.4    c0-0.6-0.5-1.1-1.1-1.1s-1.1,0.5-1.1,1.1v3.4h-2.9c-2.6,0-4.7,2.1-4.7,4.7V48h-3.4c-0.6,0-1.1,0.5-1.1,1.1s0.5,1.1,1.1,1.1h3.4    v5.4h-6.6c-0.6,0-1.1,0.5-1.1,1.1s0.5,1.1,1.1,1.1h6.6v5.4h-3.4c-0.6,0-1.1,0.5-1.1,1.1c0,0.6,0.5,1.1,1.1,1.1h3.4v2.9    c0,2.6,2.1,4.7,4.7,4.7h2.9v3.4c0,0.6,0.5,1.1,1.1,1.1s1.1-0.5,1.1-1.1v-3.4h5.4v6.6c0,0.6,0.5,1.1,1.1,1.1s1.1-0.5,1.1-1.1v-6.6    h5.4v3.4c0,0.6,0.5,1.1,1.1,1.1s1.1-0.5,1.1-1.1v-3.4H55c2.6,0,4.7-2.1,4.7-4.7v-2.9h3.4c0.6,0,1.1-0.5,1.1-1.1    c0-0.6-0.5-1.1-1.1-1.1h-3.4v-5.4h6.6c0.6,0,1.1-0.5,1.1-1.1S66.9,55.5,66.3,55.5z M57.5,68.2c0,1.4-1.1,2.6-2.6,2.6H31.9    c-1.4,0-2.6-1.1-2.6-2.6V45.1c0-1.4,1.1-2.6,2.6-2.6H55c1.4,0,2.6,1.1,2.6,2.6V68.2z"/><path class="st1" d="M53.2,45.7H33.6c-0.6,0-1.1,0.5-1.1,1.1v19.6c0,0.6,0.5,1.1,1.1,1.1h19.6c0.6,0,1.1-0.5,1.1-1.1V46.8    C54.3,46.2,53.8,45.7,53.2,45.7z M52.1,65.3H34.7V47.9h17.4V65.3z"/><path class="st1" d="M44.9,62.9h3.7c0.6,0,1.1-0.5,1.1-1.1v-3.7c0-0.6-0.5-1.1-1.1-1.1c-0.6,0-1.1,0.5-1.1,1.1v2.6h-2.6    c-0.6,0-1.1,0.5-1.1,1.1S44.3,62.9,44.9,62.9z"/><path class="st1" d="M44.9,52.5h3.7c0.6,0,1.1-0.5,1.1-1.1c0-0.6-0.5-1.1-1.1-1.1h-3.7c-0.6,0-1.1,0.5-1.1,1.1    C43.8,52,44.3,52.5,44.9,52.5z"/><path class="st1" d="M44.9,56.1h3.7c0.6,0,1.1-0.5,1.1-1.1S49.2,54,48.6,54h-3.7c-0.6,0-1.1,0.5-1.1,1.1S44.3,56.1,44.9,56.1z"/><path class="st1" d="M38.2,59.3h3.7c0.6,0,1.1-0.5,1.1-1.1s-0.5-1.1-1.1-1.1h-3.7c-0.6,0-1.1,0.5-1.1,1.1S37.6,59.3,38.2,59.3z"/><path class="st1" d="M38.2,62.9h3.7c0.6,0,1.1-0.5,1.1-1.1s-0.5-1.1-1.1-1.1h-3.7c-0.6,0-1.1,0.5-1.1,1.1S37.6,62.9,38.2,62.9z"/><path class="st1" d="M72.7,34.1h-9.8v-8.7h3.3c0.6,0,1.1-0.5,1.1-1.1s-0.5-1.1-1.1-1.1h-4.4c-0.6,0-1.1,0.5-1.1,1.1v10.9    c0,0.6,0.5,1.1,1.1,1.1h10.9c0.6,0,1.1-0.5,1.1-1.1S73.3,34.1,72.7,34.1z"/><path class="st1" d="M76,24.9c-0.4-0.4-1.1-0.4-1.5,0l-5.4,5.4l-2.8-2.8c-0.4-0.4-1.1-0.4-1.5,0s-0.4,1.1,0,1.5l3.6,3.6    c0.2,0.2,0.5,0.3,0.8,0.3s0.6-0.1,0.8-0.3l6.2-6.2C76.5,26,76.5,25.4,76,24.9z"/></g></g></svg>