<?xml version="1.0" ?><svg xmlns="http://www.w3.org/2000/svg" xmlns:xlink="http://www.w3.org/1999/xlink" version="1.1" id="design" viewBox="0 0 100 100" style="enable-background:new 0 0 100 100;" xml:space="preserve"><style type="text/css">
	.st0{fill:#48EDE5;}
	.st1{fill:#333333;}
</style><g><path class="st0" d="M58.6,34.6L58.6,34.6C67.1,34.6,74,41.5,74,50v0c0,8.5-6.9,15.4-15.4,15.4l0,0c-8.5,0-15.4-6.9-15.4-15.4v0   C43.2,41.5,50.1,34.6,58.6,34.6z"/><g><path class="st1" d="M77,23H53.8c-0.8,0-1.5,0.7-1.5,1.5v13.9c0,0.8,0.7,1.5,1.5,1.5H77c0.8,0,1.5-0.7,1.5-1.5V24.5    C78.5,23.7,77.8,23,77,23z M75.5,36.9H55.3V26h20.2V36.9z"/><path class="st1" d="M77,41.5H53.8c-0.8,0-1.5,0.7-1.5,1.5V57c0,0.8,0.7,1.5,1.5,1.5H77c0.8,0,1.5-0.7,1.5-1.5V43    C78.5,42.2,77.8,41.5,77,41.5z M75.5,55.5H55.3V44.5h20.2V55.5z"/><path class="st1" d="M77,60.1H53.8c-0.8,0-1.5,0.7-1.5,1.5v13.9c0,0.8,0.7,1.5,1.5,1.5H77c0.8,0,1.5-0.7,1.5-1.5V61.6    C78.5,60.8,77.8,60.1,77,60.1z M75.5,74H55.3V63.1h20.2V74z"/><path class="st1" d="M59.4,30.6h12c0.8,0,1.5-0.7,1.5-1.5s-0.7-1.5-1.5-1.5h-12c-0.8,0-1.5,0.7-1.5,1.5S58.6,30.6,59.4,30.6z"/><path class="st1" d="M59.4,35.3h6c0.8,0,1.5-0.7,1.5-1.5s-0.7-1.5-1.5-1.5h-6c-0.8,0-1.5,0.7-1.5,1.5S58.6,35.3,59.4,35.3z"/><path class="st1" d="M59.4,49.2h12c0.8,0,1.5-0.7,1.5-1.5s-0.7-1.5-1.5-1.5h-12c-0.8,0-1.5,0.7-1.5,1.5S58.6,49.2,59.4,49.2z"/><path class="st1" d="M59.4,53.8h6c0.8,0,1.5-0.7,1.5-1.5s-0.7-1.5-1.5-1.5h-6c-0.8,0-1.5,0.7-1.5,1.5S58.6,53.8,59.4,53.8z"/><path class="st1" d="M59.4,67.7h12c0.8,0,1.5-0.7,1.5-1.5s-0.7-1.5-1.5-1.5h-12c-0.8,0-1.5,0.7-1.5,1.5S58.6,67.7,59.4,67.7z"/><path class="st1" d="M59.4,72.4h6c0.8,0,1.5-0.7,1.5-1.5s-0.7-1.5-1.5-1.5h-6c-0.8,0-1.5,0.7-1.5,1.5S58.6,72.4,59.4,72.4z"/><path class="st1" d="M47,46.5h-0.9c-0.1-0.4-0.3-0.8-0.5-1.2l0.6-0.6c1.2-1.2,1.2-3.1,0-4.3l-0.7-0.7c-1.2-1.2-3.1-1.2-4.3,0    l-0.6,0.6c-0.4-0.2-0.8-0.4-1.2-0.5l0-1c0-1.7-1.4-3-3-3c0,0,0,0,0,0h-1c-0.8,0-1.6,0.3-2.1,0.9c-0.6,0.6-0.9,1.3-0.9,2.1v1    c-0.4,0.1-0.8,0.3-1.2,0.5l-0.6-0.6c-1.2-1.2-3.1-1.2-4.3,0l-0.6,0.6c0,0-0.1,0.1-0.1,0.1c-0.6,0.6-0.9,1.3-0.9,2.2    c0,0.8,0.3,1.6,0.9,2.1l0.6,0.6c-0.2,0.4-0.4,0.8-0.5,1.2h-0.9c-1.6,0-3,1.3-3.1,3v1c0,1.7,1.4,3,3,3h0.9c0.1,0.4,0.3,0.8,0.5,1.2    l-0.6,0.6c-1.2,1.2-1.2,3.1,0,4.3l0.7,0.7c1.2,1.2,3.1,1.2,4.3,0l0.6-0.6c0.4,0.2,0.8,0.4,1.2,0.5v0.9c0,0,0,0,0,0    c0,1.7,1.4,3,3,3h1c1.7,0,3-1.4,3-3v-0.9c0.4-0.1,0.8-0.3,1.2-0.5l0.6,0.6c1.2,1.2,3.1,1.2,4.3,0l0.7-0.7c1.2-1.2,1.2-3.1,0-4.3    l-0.6-0.6c0.2-0.4,0.4-0.8,0.5-1.2H47c1.7,0,3-1.4,3-3v-1C50,47.8,48.7,46.5,47,46.5z M47,50.5h-1.5c0,0,0,0,0,0    c-1,0-1.9,0.7-2.2,1.7c-0.2,0.6-0.4,1.1-0.7,1.6c-0.5,0.9-0.3,2,0.4,2.7l1,1.1l-0.8,0.7l-1-1c-0.7-0.7-1.8-0.9-2.7-0.4    c-0.5,0.3-1.1,0.5-1.6,0.7c-1,0.3-1.6,1.2-1.6,2.2l-0.1,1.5l-1,0c0,0,0,0,0,0v-1.5c0-1-0.7-1.9-1.6-2.2c-0.6-0.2-1.1-0.4-1.6-0.7    c-0.9-0.5-2-0.3-2.7,0.4l-1.1,1l-0.8-0.7c0,0,0.1-0.1,0.1-0.1l1-1c0.7-0.7,0.9-1.8,0.4-2.7c-0.3-0.5-0.5-1.1-0.7-1.6    c-0.3-1-1.2-1.7-2.2-1.7l-1.5,0l0-1H26c1,0,1.9-0.7,2.2-1.6c0.2-0.6,0.4-1.1,0.7-1.6c0.5-0.9,0.3-2-0.4-2.7l-1-1.1l0.8-0.7l1,1    c0.7,0.7,1.8,0.9,2.7,0.4c0.5-0.3,1.1-0.5,1.6-0.7c1-0.3,1.6-1.2,1.6-2.2l0-1.6l1,0.1l0,1.5c0,1,0.7,1.9,1.6,2.2    c0.6,0.2,1.1,0.4,1.6,0.7c0.9,0.5,2,0.3,2.7-0.4l1.1-1l0.7,0.8l-1,1c-0.7,0.7-0.8,1.8-0.4,2.7c0.3,0.5,0.5,1,0.7,1.6    c0.3,1,1.2,1.6,2.2,1.6c0,0,0,0,0,0l1.5,0L47,50.5z"/><path class="st1" d="M35.8,44.3C35.8,44.3,35.8,44.3,35.8,44.3L35.8,44.3c-3.2,0-5.7,2.6-5.7,5.7c0,1.5,0.6,3,1.7,4    c1.1,1.1,2.5,1.7,4,1.7c0,0,0,0,0,0c3.2,0,5.7-2.6,5.7-5.7c0-1.5-0.6-3-1.7-4C38.7,44.9,37.3,44.3,35.8,44.3z M35.8,52.7    C35.8,52.7,35.8,52.7,35.8,52.7c-0.7,0-1.4-0.3-1.9-0.8c-0.5-0.5-0.8-1.2-0.8-1.9c0-1.5,1.2-2.7,2.7-2.7h0c0,0,0,0,0,0    c0.7,0,1.4,0.3,1.9,0.8c0.5,0.5,0.8,1.2,0.8,1.9C38.5,51.5,37.3,52.7,35.8,52.7z"/></g></g></svg>